<?xml version="1.0" encoding="UTF-8" standalone="no"?><!-- Generator: Gravit.io --><svg xmlns="http://www.w3.org/2000/svg" xmlns:xlink="http://www.w3.org/1999/xlink" style="isolation:isolate" viewBox="0 0 512 512" width="512pt" height="512pt"><defs><clipPath id="_clipPath_3Hh8jjr6GcgJdWTqrdQkZMEUrIAfVzRE"><rect width="512" height="512"/></clipPath></defs><g clip-path="url(#_clipPath_3Hh8jjr6GcgJdWTqrdQkZMEUrIAfVzRE)"><path d=" M 28 144 C 28 147.18 26.73 150.24 24.49 152.49 C 22.24 154.73 19.18 156 16 156 C 12.82 156 9.76 154.73 7.51 152.49 C 5.27 150.24 4 147.18 4 144 L 4 80 C 4 73.67 4.49 67.35 5.47 61.1 C 6.27 55.93 7.6 50.85 9.41 45.94 C 10.23 43.73 11.16 41.56 12.19 39.45 C 13.18 37.43 14.28 35.47 15.49 33.57 C 16.64 31.74 17.9 29.97 19.25 28.28 C 20.58 26.61 22.01 25.02 23.51 23.51 C 25.11 21.92 26.8 20.42 28.57 19.03 C 30.37 17.61 32.25 16.29 34.2 15.09 C 36.23 13.84 38.34 12.7 40.51 11.69 C 42.79 10.62 45.12 9.67 47.5 8.86 C 48.58 8.48 49.67 8.14 50.76 7.81 C 51.89 7.48 53.03 7.17 54.18 6.89 C 58.08 5.92 62.04 5.21 66.04 4.77 C 70.67 4.26 75.33 4 80 4 L 144 4 C 147.18 4 150.24 5.27 152.49 7.51 C 154.73 9.76 156 12.82 156 16 C 156 19.18 154.73 22.24 152.49 24.49 C 150.24 26.73 147.18 28 144 28 L 80 28 C 76.22 28 72.43 28.21 68.67 28.62 C 65.74 28.95 62.83 29.47 59.96 30.18 C 59.15 30.38 58.34 30.6 57.54 30.84 C 56.8 31.06 56.05 31.29 55.32 31.55 C 53.74 32.09 52.19 32.72 50.68 33.42 C 49.34 34.05 48.05 34.75 46.79 35.52 C 45.62 36.24 44.5 37.03 43.42 37.88 C 42.39 38.69 41.41 39.56 40.49 40.49 C 39.61 41.36 38.78 42.29 38.01 43.25 C 37.2 44.26 36.45 45.32 35.76 46.41 C 35.02 47.57 34.35 48.78 33.74 50.01 C 33.07 51.4 32.46 52.82 31.92 54.26 C 30.66 57.68 29.74 61.21 29.18 64.8 C 28.39 69.83 28 74.91 28 80 L 28 144 Z " fill="rgb(255,255,255)"/><path d=" M 368 28 C 364.82 28 361.76 26.73 359.51 24.49 C 357.27 22.24 356 19.18 356 16 C 356 12.82 357.27 9.76 359.51 7.51 C 361.76 5.27 364.82 4 368 4 L 432 4 C 438.33 4 444.65 4.49 450.9 5.47 C 456.07 6.27 461.15 7.6 466.06 9.41 C 468.27 10.23 470.44 11.16 472.55 12.19 C 474.57 13.18 476.53 14.28 478.43 15.49 C 480.26 16.64 482.03 17.9 483.72 19.25 C 485.39 20.58 486.98 22.01 488.49 23.51 C 490.08 25.11 491.58 26.8 492.97 28.57 C 494.39 30.37 495.71 32.25 496.91 34.2 C 498.16 36.23 499.3 38.34 500.31 40.51 C 501.38 42.79 502.33 45.12 503.14 47.5 C 503.52 48.58 503.86 49.67 504.19 50.76 C 504.52 51.89 504.83 53.03 505.11 54.18 C 506.08 58.08 506.79 62.04 507.23 66.04 C 507.74 70.67 508 75.33 508 80 L 508 144 C 508 147.18 506.73 150.24 504.49 152.49 C 502.24 154.73 499.18 156 496 156 C 492.82 156 489.76 154.73 487.51 152.49 C 485.27 150.24 484 147.18 484 144 L 484 80 C 484 76.22 483.79 72.43 483.38 68.67 C 483.05 65.74 482.53 62.83 481.82 59.96 C 481.62 59.15 481.4 58.34 481.16 57.54 C 480.94 56.8 480.71 56.05 480.45 55.32 C 479.91 53.74 479.28 52.19 478.58 50.68 C 477.95 49.34 477.25 48.05 476.48 46.79 C 475.76 45.62 474.97 44.5 474.12 43.42 C 473.31 42.39 472.44 41.41 471.51 40.49 C 470.64 39.61 469.71 38.78 468.75 38.01 C 467.74 37.2 466.68 36.45 465.59 35.76 C 464.43 35.02 463.22 34.35 461.99 33.74 C 460.6 33.07 459.18 32.46 457.74 31.92 C 454.32 30.66 450.79 29.74 447.2 29.18 C 442.17 28.39 437.09 28 432 28 L 368 28 Z " fill="rgb(255,255,255)"/><path d=" M 484 368 C 484 364.82 485.27 361.76 487.51 359.51 C 489.76 357.27 492.82 356 496 356 C 499.18 356 502.24 357.27 504.49 359.51 C 506.73 361.76 508 364.82 508 368 L 508 432 C 508 438.33 507.51 444.65 506.53 450.9 C 505.73 456.07 504.4 461.15 502.59 466.06 C 501.77 468.27 500.84 470.44 499.81 472.55 C 498.82 474.57 497.72 476.53 496.51 478.43 C 495.36 480.26 494.1 482.03 492.75 483.72 C 491.42 485.39 489.99 486.98 488.49 488.49 C 486.89 490.08 485.2 491.58 483.43 492.97 C 481.63 494.39 479.75 495.71 477.8 496.91 C 475.77 498.16 473.66 499.3 471.49 500.31 C 469.21 501.38 466.88 502.33 464.5 503.14 C 463.42 503.52 462.33 503.86 461.24 504.19 C 460.11 504.52 458.97 504.83 457.82 505.11 C 453.92 506.08 449.96 506.79 445.96 507.23 C 441.33 507.74 436.67 508 432 508 L 368 508 C 364.82 508 361.76 506.73 359.51 504.49 C 357.27 502.24 356 499.18 356 496 C 356 492.82 357.27 489.76 359.51 487.51 C 361.76 485.27 364.82 484 368 484 L 432 484 C 435.78 484 439.57 483.79 443.33 483.38 C 446.26 483.05 449.17 482.53 452.04 481.82 C 452.85 481.62 453.66 481.4 454.46 481.16 C 455.2 480.94 455.95 480.71 456.68 480.45 C 458.26 479.91 459.81 479.28 461.32 478.58 C 462.66 477.95 463.95 477.25 465.21 476.48 C 466.38 475.76 467.5 474.97 468.58 474.12 C 469.61 473.31 470.59 472.44 471.51 471.51 C 472.39 470.64 473.22 469.71 473.99 468.75 C 474.8 467.74 475.55 466.68 476.24 465.59 C 476.98 464.43 477.65 463.22 478.26 461.99 C 478.93 460.6 479.54 459.18 480.08 457.74 C 481.34 454.32 482.26 450.79 482.82 447.2 C 483.61 442.17 484 437.09 484 432 L 484 368 Z " fill="rgb(255,255,255)"/><path d=" M 144 484 C 147.18 484 150.24 485.27 152.49 487.51 C 154.73 489.76 156 492.82 156 496 C 156 499.18 154.73 502.24 152.49 504.49 C 150.24 506.73 147.18 508 144 508 L 80 508 C 73.67 508 67.35 507.51 61.1 506.53 C 55.93 505.73 50.85 504.4 45.94 502.59 C 43.73 501.77 41.56 500.84 39.45 499.81 C 37.43 498.82 35.47 497.72 33.57 496.51 C 31.74 495.36 29.97 494.1 28.28 492.75 C 26.61 491.42 25.02 489.99 23.51 488.49 C 21.92 486.89 20.42 485.2 19.03 483.43 C 17.61 481.63 16.29 479.75 15.09 477.8 C 13.84 475.77 12.7 473.66 11.69 471.49 C 10.62 469.21 9.67 466.88 8.86 464.5 C 8.48 463.42 8.14 462.33 7.81 461.24 C 7.48 460.11 7.17 458.97 6.89 457.82 C 5.92 453.92 5.21 449.96 4.77 445.96 C 4.26 441.33 4 436.67 4 432 L 4 368 C 4 364.82 5.27 361.76 7.51 359.51 C 9.76 357.27 12.82 356 16 356 C 19.18 356 22.24 357.27 24.49 359.51 C 26.73 361.76 28 364.82 28 368 L 28 432 C 28 435.78 28.21 439.57 28.62 443.33 C 28.95 446.26 29.47 449.17 30.18 452.04 C 30.38 452.85 30.6 453.66 30.84 454.46 C 31.06 455.2 31.29 455.95 31.55 456.68 C 32.09 458.26 32.72 459.81 33.42 461.32 C 34.05 462.66 34.75 463.95 35.52 465.21 C 36.24 466.38 37.03 467.5 37.88 468.58 C 38.69 469.61 39.56 470.59 40.49 471.51 C 41.36 472.39 42.29 473.22 43.25 473.99 C 44.26 474.8 45.32 475.55 46.41 476.24 C 47.57 476.98 48.78 477.65 50.01 478.26 C 51.4 478.93 52.82 479.54 54.26 480.08 C 57.68 481.34 61.21 482.26 64.8 482.82 C 69.83 483.61 74.91 484 80 484 L 144 484 Z " fill="rgb(255,255,255)"/><path d=" M 258.889 231.542 L 258.889 256.202 L 282.627 256.202 L 282.627 264.153 L 258.889 264.153 L 258.889 288.698 L 250.88 288.698 L 250.88 264.153 L 227.257 264.153 L 227.257 256.202 L 250.88 256.202 L 250.88 231.542 L 258.889 231.542 L 258.889 231.542 Z " fill="rgb(255,255,255)"/></g></svg>